<svg width="286" height="70" viewBox="0 0 286 70" fill="none" xmlns="http://www.w3.org/2000/svg">
<path d="M68.7881 34.7681C68.7881 53.97 53.3894 69.5361 34.3941 69.5361C15.3988 69.5361 0 53.97 0 34.7681C0 15.5662 15.3988 0 34.3941 0C53.3894 0 68.7881 15.5662 68.7881 34.7681Z" fill="#014051"/>
<path fill-rule="evenodd" clip-rule="evenodd" d="M43.1754 12.9499C43.7204 12.8027 44.1726 13.3946 43.8912 13.8874L35.3092 28.9138C35.141 29.2084 35.243 29.5862 35.5358 29.7575L47.1442 36.5329C47.2717 36.623 47.3641 36.7556 47.4049 36.9069C47.4456 37.0586 47.4323 37.22 47.3668 37.362L38.0719 53.6354C38.0368 53.6968 37.9901 53.7507 37.9342 53.7936C37.8783 53.8366 37.8138 53.8685 37.7457 53.8864L25.4488 57.1423C25.3468 57.1693 25.2384 57.1651 25.1383 57.1306C25.0383 57.0958 24.9498 57.0317 24.8854 56.947C24.8211 56.8623 24.7831 56.7601 24.776 56.654C24.769 56.5478 24.7928 56.4413 24.8453 56.3493L33.5787 41.0593C33.747 40.7645 33.6453 40.3867 33.3522 40.2155L21.8336 33.4929C21.6453 33.383 21.4333 33.2809 21.3776 33.0729C21.3224 32.8651 21.5029 32.6429 21.607 32.4606L30.7174 16.5095C30.8008 16.3639 30.939 16.2582 31.1002 16.2145L42.0572 13.2516L42.1139 13.237L42.568 13.1149L43.1754 12.9499Z" fill="#32FE6B"/>
<path d="M39.3518 15.9133C39.7936 15.7925 40.1581 16.2777 39.9299 16.6828L36.0075 23.6294C35.7144 24.1485 34.9366 23.8419 35.0607 23.2562L35.8081 19.7412C35.8518 19.5345 35.7694 19.3214 35.5999 19.2001L34.2193 18.2101C33.8618 17.9541 33.9595 17.388 34.3811 17.2727L39.3518 15.9133Z" fill="#014051"/>
<path d="M43.5817 36.9212C44.2076 36.75 44.7239 37.4374 44.4007 38.0112L38.8439 47.8523C38.4287 48.5877 37.3269 48.1533 37.5027 47.3236L38.5614 42.344C38.6234 42.0512 38.5066 41.7493 38.2666 41.5774L36.3107 40.1749C35.8042 39.8123 35.9426 39.0103 36.5398 38.8469L43.5817 36.9212Z" fill="#014051"/>
<path d="M93.2305 54.5594C91.0837 54.5594 89.1775 54.1337 87.5119 53.2824C85.8833 52.4311 84.6064 51.2096 83.681 49.6181C82.7927 48.0265 82.3485 46.1573 82.3485 44.0105V43.0112C82.3485 42.419 82.6816 42.1228 83.3479 42.1228H85.2356C85.9018 42.1228 86.2349 42.419 86.2349 43.0112V43.6219C86.2349 45.9908 86.8642 47.8044 88.1226 49.0629C89.3811 50.3213 91.1392 50.9506 93.397 50.9506C95.6919 50.9506 97.4315 50.4879 98.6159 49.5625C99.8004 48.6002 100.393 47.2862 100.393 45.6206V44.5657C100.393 44.0105 100.245 43.5479 99.9484 43.1777C99.6523 42.8076 99.1896 42.493 98.5604 42.2339L86.7346 37.4592C85.4762 36.978 84.5138 36.3488 83.8476 35.5715C83.2184 34.7942 82.9037 33.8133 82.9037 32.6289V31.1854C82.9037 29.5198 83.2924 27.9837 84.0697 26.5772C84.8839 25.1337 86.0684 23.9863 87.6229 23.135C89.2145 22.2466 91.1207 21.8025 93.3415 21.8025C95.5623 21.8025 97.4315 22.2651 98.9491 23.1905C100.504 24.0788 101.67 25.3002 102.447 26.8548C103.261 28.3724 103.668 30.112 103.668 32.0737V32.6844C103.668 33.3136 103.317 33.6283 102.613 33.6283H100.837C100.133 33.6283 99.7819 33.3136 99.7819 32.6844V32.0737C99.7819 30.223 99.1526 28.65 97.8942 27.3545C96.6357 26.059 95.0441 25.4113 93.1194 25.4113C91.1947 25.4113 89.6587 26.0035 88.5113 27.1879C87.3639 28.3353 86.7901 29.6678 86.7901 31.1854V31.6851C86.7901 32.2773 86.9382 32.7584 87.2343 33.1286C87.5304 33.4617 87.9931 33.7578 88.6223 34.0169L100.448 38.7916C101.781 39.3468 102.743 39.9576 103.335 40.6238C103.964 41.29 104.279 42.2894 104.279 43.6219V45.6206C104.279 48.2116 103.335 50.3583 101.447 52.061C99.5598 53.7266 96.8208 54.5594 93.2305 54.5594Z" fill="#32FE6B"/>
<path d="M111.781 53.7266C111.04 53.7266 110.67 53.3564 110.67 52.6162V14.8624C110.67 14.1222 111.04 13.752 111.781 13.752H113.446C114.187 13.752 114.557 14.1222 114.557 14.8624V34.2945C114.557 34.8127 114.705 35.2198 115.001 35.5159C115.297 35.8121 115.704 35.9601 116.222 35.9601H120.886C121.515 35.9601 122.052 35.8491 122.496 35.627C122.977 35.4049 123.421 35.0348 123.829 34.5166L126.549 31.2409C126.956 30.7597 127.234 30.2415 127.382 29.6863C127.567 29.1311 127.659 28.4279 127.659 27.5766V23.7457C127.659 23.0054 128.03 22.6353 128.77 22.6353H130.436C131.176 22.6353 131.546 23.0054 131.546 23.7457V29.4643C131.546 30.6487 131.176 31.6851 130.436 32.5734L127.882 35.627C127.622 35.9601 127.437 36.2562 127.326 36.5153C127.215 36.7744 127.16 37.0705 127.16 37.4036C127.16 37.7368 127.215 38.0329 127.326 38.292C127.437 38.5511 127.622 38.8472 127.882 39.1803L130.991 42.9557C131.731 43.844 132.101 44.8804 132.101 46.0648V52.6162C132.101 53.3564 131.731 53.7266 130.991 53.7266H129.325C128.585 53.7266 128.215 53.3564 128.215 52.6162V47.3973C128.215 46.2128 127.845 45.1765 127.104 44.2881L124.384 41.0124C123.977 40.4943 123.532 40.1241 123.051 39.902C122.57 39.68 122.015 39.5689 121.386 39.5689H116.222C115.704 39.5689 115.297 39.717 115.001 40.0131C114.705 40.3092 114.557 40.7163 114.557 41.2345V52.6162C114.557 53.3564 114.187 53.7266 113.446 53.7266H111.781Z" fill="#32FE6B"/>
<path d="M137.572 52.6162V51.2282C137.572 50.4879 137.942 50.1178 138.682 50.1178H145.955C146.473 50.1178 146.88 49.9697 147.177 49.6736C147.473 49.3775 147.621 48.9703 147.621 48.4521V27.9097C147.621 27.4285 147.473 27.0399 147.177 26.7438C146.88 26.4106 146.473 26.2441 145.955 26.2441H138.682C137.942 26.2441 137.572 25.8739 137.572 25.1337V23.7457C137.572 23.0054 137.942 22.6353 138.682 22.6353H149.009C149.823 22.6353 150.434 22.8574 150.841 23.3015C151.285 23.7457 151.507 24.3564 151.507 25.1337V48.4521C151.507 48.9703 151.655 49.3775 151.951 49.6736C152.247 49.9697 152.655 50.1178 153.173 50.1178H158.725C159.465 50.1178 159.835 50.4879 159.835 51.2282V52.6162C159.835 53.3564 159.465 53.7266 158.725 53.7266H138.682C137.942 53.7266 137.572 53.3564 137.572 52.6162ZM146.344 17.3609V16.2505C146.344 15.4362 146.547 14.8254 146.954 14.4183C147.399 13.9741 148.028 13.752 148.842 13.752H150.23C151.044 13.752 151.655 13.9741 152.062 14.4183C152.507 14.8254 152.729 15.4362 152.729 16.2505V17.3609C152.729 18.1752 152.507 18.8044 152.062 19.2485C151.655 19.6557 151.044 19.8593 150.23 19.8593H148.842C148.028 19.8593 147.399 19.6557 146.954 19.2485C146.547 18.8044 146.344 18.1752 146.344 17.3609Z" fill="#32FE6B"/>
<path d="M165.919 53.7266C165.179 53.7266 164.809 53.3564 164.809 52.6162V14.8624C164.809 14.1222 165.179 13.752 165.919 13.752H167.585C168.325 13.752 168.695 14.1222 168.695 14.8624V52.6162C168.695 53.3564 168.325 53.7266 167.585 53.7266H165.919Z" fill="#32FE6B"/>
<path d="M177.563 53.7266C176.823 53.7266 176.453 53.3564 176.453 52.6162V14.8624C176.453 14.1222 176.823 13.752 177.563 13.752H179.229C179.969 13.752 180.339 14.1222 180.339 14.8624V52.6162C180.339 53.3564 179.969 53.7266 179.229 53.7266H177.563Z" fill="#32FE6B"/>
<path d="M197.202 53.7266C196.314 53.7266 195.648 53.3379 195.204 52.5606L188.042 39.4579C187.523 38.4585 187.264 37.4221 187.264 36.3488V23.7457C187.264 23.0054 187.634 22.6353 188.375 22.6353H190.04C190.781 22.6353 191.151 23.0054 191.151 23.7457V35.627C191.151 36.2192 191.206 36.7559 191.317 37.2371C191.465 37.7182 191.669 38.2179 191.928 38.7361L197.48 48.8963C197.628 49.1924 197.795 49.4145 197.98 49.5625C198.202 49.7106 198.424 49.7846 198.646 49.7846C198.868 49.7846 199.072 49.7106 199.257 49.5625C199.479 49.4145 199.664 49.1924 199.812 48.8963L205.364 38.7361C205.66 38.2179 205.864 37.7182 205.975 37.2371C206.086 36.7559 206.141 36.2192 206.141 35.627V23.7457C206.141 23.0054 206.511 22.6353 207.252 22.6353H208.917C209.657 22.6353 210.028 23.0054 210.028 23.7457V36.3488C210.028 37.4221 209.768 38.4585 209.25 39.4579L202.088 52.5606C201.644 53.3379 200.978 53.7266 200.089 53.7266H197.202Z" fill="#32FE6B"/>
<path d="M215.595 52.6162V51.2282C215.595 50.4879 215.965 50.1178 216.705 50.1178H223.978C224.496 50.1178 224.904 49.9697 225.2 49.6736C225.496 49.3775 225.644 48.9703 225.644 48.4521V27.9097C225.644 27.4285 225.496 27.0399 225.2 26.7438C224.904 26.4106 224.496 26.2441 223.978 26.2441H216.705C215.965 26.2441 215.595 25.8739 215.595 25.1337V23.7457C215.595 23.0054 215.965 22.6353 216.705 22.6353H227.032C227.846 22.6353 228.457 22.8574 228.864 23.3015C229.308 23.7457 229.53 24.3564 229.53 25.1337V48.4521C229.53 48.9703 229.678 49.3775 229.974 49.6736C230.271 49.9697 230.678 50.1178 231.196 50.1178H236.748C237.488 50.1178 237.858 50.4879 237.858 51.2282V52.6162C237.858 53.3564 237.488 53.7266 236.748 53.7266H216.705C215.965 53.7266 215.595 53.3564 215.595 52.6162ZM224.367 17.3609V16.2505C224.367 15.4362 224.571 14.8254 224.978 14.4183C225.422 13.9741 226.051 13.752 226.865 13.752H228.253C229.068 13.752 229.678 13.9741 230.086 14.4183C230.53 14.8254 230.752 15.4362 230.752 16.2505V17.3609C230.752 18.1752 230.53 18.8044 230.086 19.2485C229.678 19.6557 229.068 19.8593 228.253 19.8593H226.865C226.051 19.8593 225.422 19.6557 224.978 19.2485C224.571 18.8044 224.367 18.1752 224.367 17.3609Z" fill="#32FE6B"/>
<path d="M244.09 45.9537V27.8542C244.09 27.373 243.942 26.9844 243.646 26.6882C243.35 26.3551 242.943 26.1886 242.424 26.1886H239.093C238.353 26.1886 237.983 25.8184 237.983 25.0782V23.6902C237.983 22.9499 238.353 22.5798 239.093 22.5798H242.424C242.943 22.5798 243.35 22.4317 243.646 22.1356C243.942 21.8395 244.09 21.4323 244.09 20.9141V14.8624C244.09 14.1222 244.46 13.752 245.2 13.752H246.866C247.606 13.752 247.976 14.1222 247.976 14.8624V20.9141C247.976 21.4323 248.125 21.8395 248.421 22.1356C248.717 22.4317 249.124 22.5798 249.642 22.5798H256.915C257.655 22.5798 258.026 22.9499 258.026 23.6902V25.0782C258.026 25.8184 257.655 26.1886 256.915 26.1886H249.642C249.124 26.1886 248.717 26.3366 248.421 26.6327C248.125 26.9288 247.976 27.336 247.976 27.8542V46.2313C247.976 47.4898 248.31 48.4521 248.976 49.1184C249.642 49.7846 250.604 50.1178 251.863 50.1178H256.915C257.655 50.1178 258.026 50.4879 258.026 51.2282V52.6162C258.026 53.3564 257.655 53.7266 256.915 53.7266H251.863C249.346 53.7266 247.421 53.0603 246.089 51.7278C244.756 50.3954 244.09 48.4707 244.09 45.9537Z" fill="#32FE6B"/>
<path d="M270.796 53.7266C268.279 53.7266 266.354 53.0603 265.022 51.7278C263.69 50.3954 263.023 48.4707 263.023 45.9537V43.4553C263.023 40.9384 263.69 39.0137 265.022 37.6812C266.354 36.3488 268.279 35.6825 270.796 35.6825H279.679C280.198 35.6825 280.605 35.5345 280.901 35.2383C281.197 34.9422 281.345 34.5351 281.345 34.0169V31.7961C281.345 29.7974 280.771 28.2428 279.624 27.1324C278.476 25.985 276.755 25.4113 274.46 25.4113C272.24 25.4113 270.537 25.9295 269.353 26.9658C268.168 27.9652 267.576 29.2052 267.576 30.6857V31.4075C267.576 32.1477 267.206 32.5179 266.466 32.5179H264.8C264.06 32.5179 263.69 32.1477 263.69 31.4075V30.6857C263.69 29.2052 264.078 27.7986 264.855 26.4662C265.67 25.0967 266.891 23.9863 268.52 23.135C270.148 22.2466 272.129 21.8025 274.46 21.8025C278.014 21.8025 280.697 22.7278 282.511 24.5785C284.325 26.3921 285.231 28.798 285.231 31.7961V51.2282C285.231 52.0425 285.009 52.6717 284.565 53.1158C284.158 53.523 283.547 53.7266 282.733 53.7266H270.796ZM279.679 50.1178C280.198 50.1178 280.605 49.9697 280.901 49.6736C281.197 49.3775 281.345 48.9703 281.345 48.4521V40.9569C281.345 40.4387 281.197 40.0316 280.901 39.7355C280.605 39.4394 280.198 39.2913 279.679 39.2913H270.796C269.538 39.2913 268.575 39.6244 267.909 40.2907C267.243 40.9569 266.91 41.9193 266.91 43.1777V46.2313C266.91 47.4898 267.243 48.4521 267.909 49.1184C268.575 49.7846 269.538 50.1178 270.796 50.1178H279.679Z" fill="#32FE6B"/>
</svg>
