<svg width="107" height="106" viewBox="0 0 107 106" fill="none" xmlns="http://www.w3.org/2000/svg">
<path d="M106.056 52.7802C106.056 81.9299 82.3147 105.56 53.0281 105.56C23.7415 105.56 -5.0967e-06 81.9299 0 52.7802C5.0967e-06 23.6305 23.7415 -5.12063e-06 53.0281 0C82.3147 5.12063e-06 106.056 23.6305 106.056 52.7802Z" fill="#32FE6B"/>
<path fill-rule="evenodd" clip-rule="evenodd" d="M66.5669 19.6593C67.4072 19.4359 68.1043 20.3345 67.6705 21.0825L54.4389 43.8935C54.1796 44.3408 54.3368 44.9144 54.7882 45.1744L72.6858 55.4599C72.8825 55.5967 73.025 55.798 73.0878 56.0277C73.1506 56.2579 73.1301 56.503 73.0291 56.7185L58.6984 81.4227C58.6442 81.5159 58.5723 81.5976 58.4861 81.6628C58.3999 81.728 58.3005 81.7764 58.1955 81.8037L39.2364 86.7463C39.0791 86.7873 38.9119 86.781 38.7576 86.7285C38.6034 86.6758 38.467 86.5783 38.3677 86.4498C38.2687 86.3213 38.2101 86.1661 38.199 86.005C38.1882 85.8438 38.2249 85.6822 38.3059 85.5425L51.7709 62.3312C52.0304 61.8837 51.8736 61.3102 51.4216 61.0503L33.6625 50.8449C33.3723 50.6782 33.0454 50.5231 32.9594 50.2074C32.8744 49.892 33.1527 49.5546 33.3132 49.2779L47.3594 25.063C47.488 24.8421 47.701 24.6815 47.9496 24.6153L64.8429 20.1174L64.9303 20.0952L65.6304 19.9099L66.5669 19.6593Z" fill="#014051"/>
<path d="M60.6717 24.1579C61.3528 23.9745 61.9148 24.711 61.563 25.326L55.5155 35.8714C55.0636 36.6594 53.8645 36.1939 54.0558 35.3049L55.2081 29.9689C55.2755 29.6551 55.1484 29.3316 54.8871 29.1474L52.7585 27.6445C52.2073 27.256 52.3579 26.3965 53.0079 26.2215L60.6717 24.1579Z" fill="#32FE6B"/>
<path d="M67.1942 56.048C68.1591 55.7881 68.9553 56.8316 68.4568 57.7028L59.8895 72.6422C59.2494 73.7585 57.5506 73.099 57.8217 71.8396L59.4541 64.2803C59.5496 63.8357 59.3695 63.3773 58.9994 63.1165L55.9839 60.9874C55.203 60.4369 55.4164 59.2194 56.3372 58.9714L67.1942 56.048Z" fill="#32FE6B"/>
</svg>
